<?xml version="1.0" encoding="UTF-8" standalone="no"?>
<!-- Created with Inkscape (http://www.inkscape.org/) -->

<svg
   width="103.60127mm"
   height="79.549377mm"
   viewBox="0 0 103.60127 79.549377"
   version="1.1"
   id="svg91874"
   inkscape:version="1.1.2 (76b9e6a115, 2022-02-25)"
   sodipodi:docname="food_tomato_color.svg"
   xmlns:inkscape="http://www.inkscape.org/namespaces/inkscape"
   xmlns:sodipodi="http://sodipodi.sourceforge.net/DTD/sodipodi-0.dtd"
   xmlns="http://www.w3.org/2000/svg"
   xmlns:svg="http://www.w3.org/2000/svg">
  <sodipodi:namedview
     id="namedview91876"
     pagecolor="#ffffff"
     bordercolor="#666666"
     borderopacity="1.0"
     inkscape:pageshadow="2"
     inkscape:pageopacity="0.0"
     inkscape:pagecheckerboard="0"
     inkscape:document-units="mm"
     showgrid="false"
     inkscape:zoom="0.66368547"
     inkscape:cx="-70.063309"
     inkscape:cy="241.83142"
     inkscape:window-width="1866"
     inkscape:window-height="1016"
     inkscape:window-x="54"
     inkscape:window-y="27"
     inkscape:window-maximized="1"
     inkscape:current-layer="layer1" />
  <defs
     id="defs91871" />
  <g
     inkscape:label="Capa 1"
     inkscape:groupmode="layer"
     id="layer1"
     transform="translate(-123.60876,-84.606553)">
    <g
       id="g91849"
       transform="translate(-623.21512,-2354.7879)">
      <path
         style="color:#000000;overflow:visible;fill:#de685b;fill-opacity:1;stroke:none;stroke-width:1.0088;stroke-linecap:round;stroke-linejoin:round;paint-order:fill markers stroke"
         d="m 781.34923,2513.1843 c 10.76391,5.7765 22.11635,8.2842 35.96273,-3.0596 33.07717,9.0161 42.49403,-41.4467 15.53163,-48.6227 0,0 -1.48548,-9.8233 -23.88672,-3.7981 -10.92653,-1.4646 -12.57427,-4.0843 -23.67474,-2.351 0,0 -30.92263,-2.5421 -36.62932,26.6061 -1.87105,9.5568 3.99958,35.0947 32.69642,31.2253 z"
         id="path4168-7"
         sodipodi:nodetypes="cccccsc" />
      <path
         style="fill:#498950;fill-opacity:1;stroke:none;stroke-width:1;stroke-linecap:round;stroke-linejoin:round;paint-order:markers stroke fill;stop-color:#000000"
         d="m 774.84903,2470.2033 c 1.80637,-2.767 12.21388,-9.6141 14.71406,-9.7541 2.50021,-0.14 -6.50441,-3.5393 -4.28098,-5.0964 2.22343,-1.5568 19.47354,-0.4374 19.47354,-0.4374 0,0 3.95738,4.6512 5.40714,3.2192 1.44975,-1.4319 12.85983,-4.1449 16.68787,-3.5636 3.82808,0.5815 8.66098,5.4369 4.25871,5.8137 -4.40224,0.3767 -18.56602,1.0874 -18.56602,1.0874 0,0 13.3264,7.0948 13.86469,8.9572 0.53832,1.8624 -1.49532,3.7251 -4.77308,2.2394 -3.27776,-1.4859 -11.93871,-3.3051 -11.93871,-3.3051 0,0 -1.19629,8.7741 -4.07927,10.7444 -2.88301,1.9701 -0.81346,-12.1764 -4.01944,-12.3486 -3.20601,-0.1723 -28.83001,5.3075 -26.74851,2.4439 z"
         id="path90731" />
      <path
         style="fill:#030303;fill-opacity:1;stroke-width:1.24622"
         d="m 787.64253,2517.5453 c -1.2877,-0.748 -7.17609,-1.2772 -13.08529,-1.1758 -42.2108,-6.7116 -31.03713,-58.3431 -1.07485,-62.2844 5.52173,-1.5836 14.84171,0 15.53237,2.6435 0.31152,1.1917 2.19918,2.4931 4.19476,2.8923 4.98997,0.9979 4.60374,3.2764 -0.422,2.4893 -2.81068,-0.4403 -5.74016,0.2679 -9.57267,2.3144 -5.60774,2.9944 -8.95981,7.2358 -4.30568,5.448 3.55308,-1.3649 21.98466,-4.4299 22.97152,-3.82 0.47492,0.2936 1.56549,2.2282 2.42326,4.2992 1.97177,4.76 3.74974,4.8415 3.74974,0.1721 0,-2.6491 -0.73674,-3.8121 -2.80397,-4.4255 l -2.804,-0.8321 2.63066,-1.0782 c 2.90107,-1.1891 4.98113,-5.0256 2.72484,-5.0256 -0.78126,0 -2.43437,0.9176 -3.67359,2.0391 -4.12686,3.7347 -4.00362,-1.1168 0.29422,-11.5757 2.2103,-5.3788 4.14593,-9.9472 4.30146,-10.1518 0.15539,-0.2048 1.75067,0 3.5451,0.4466 4.42468,1.1105 4.26093,5.0276 -0.48379,11.5775 -2.30002,3.1752 -3.11804,5.1719 -2.11857,5.1719 0.89527,0 2.23598,-0.6081 2.97921,-1.3513 0.74325,-0.7432 4.64081,-1.6442 8.66123,-2.0019 6.22519,-0.554 7.81838,-0.2477 10.7369,2.0648 1.88491,1.4936 3.42709,3.7114 3.42709,4.9284 0,1.4175 1.75769,2.9035 4.88929,4.1336 6.60969,2.5964 10.06538,9.3369 10.06538,19.6335 0,11.2321 -6.44028,24.2912 -13.87606,28.1363 -3.91387,2.024 -13.68085,2.3902 -15.49012,0.5809 -0.7714,-0.7714 -3.8239,0.1209 -8.52526,2.4925 -5.78154,2.9163 -8.92662,3.686 -14.9369,3.6561 -4.1873,-0.021 -8.66669,-0.6497 -9.95428,-1.3977 z m 19.61209,-4.0184 c 2.25816,-0.9435 5.22539,-3.2524 6.59375,-5.131 2.46636,-3.3858 2.52309,-3.3972 6.55211,-1.3137 9.20543,4.7602 17.3588,0.8338 23.24328,-11.1933 2.89116,-5.9094 3.27631,-7.9338 2.65441,-13.957 -1.02172,-9.9011 -3.69661,-12.9856 -13.36548,-15.4133 -4.36051,-1.0947 -8.14352,-2.6369 -8.40701,-3.427 -0.52176,-1.5653 -5.28617,-2.0245 -5.20792,-0.502 0.0261,0.5141 1.84889,2.0651 4.05021,3.4468 4.97638,3.1235 5.94967,7.4438 1.91456,8.4989 -1.61695,0.4229 -4.06179,-0.056 -5.67327,-1.1125 -3.53703,-2.3174 -3.89595,-4.9476 -0.42149,-3.0881 3.02033,1.6164 5.06678,1.6518 5.06678,0.087 0,-1.6617 -3.46464,-3.2923 -9.19699,-4.3284 -4.73549,-0.856 -4.82186,-0.8049 -4.19339,2.4833 1.34241,7.022 -3.26408,16.7559 -7.92968,16.7559 -1.94647,0 -2.14686,-0.792 -1.52612,-6.0327 0.40228,-3.3968 0.12798,-7.1284 -0.62785,-8.5407 -1.3297,-2.4845 -1.43975,-2.487 -11.67757,-0.2613 -12.60074,2.7393 -17.18953,2.9317 -17.18953,0.7204 0,-2.3164 4.85936,-6.6207 10.65939,-9.4418 l 4.90946,-2.388 -3.41902,-1.5579 c -6.53549,-2.9778 -19.59388,3.0644 -27.09711,12.5381 -5.74835,6.9958 -10.26512,26.1868 0.2822,34.18 4.09799,3.5754 9.32315,7.3514 16.30259,7.1152 4.55566,-0.1542 4.73676,-0.3239 4.36175,-4.0875 -0.55156,-5.535 2.34864,-6.0001 4.55082,-0.7299 3.13412,7.5013 15.10539,10.7267 24.79112,6.6797 z m 23.23101,-55.5868 c 0,-1.8321 -5.67616,-2.8977 -10.55735,-1.982 -7.59007,1.4239 -6.26586,3.2044 2.38339,3.2044 4.5127,0 8.17396,-0.5475 8.17396,-1.2224 z"
         id="path987-3"
         sodipodi:nodetypes="sccssssssssscsssssssssssssssssssssssssssssssssssssssscsccsssssssss" />
    </g>
  </g>
</svg>
